<svg width="100" height="100" viewBox="0 0 100 100" xmlns="http://www.w3.org/2000/svg">
  <defs>
    <linearGradient id="grad" x1="0%" y1="0%" x2="100%" y2="100%">
      <stop offset="0%" style="stop-color:#8b5cf6;stop-opacity:1" />
      <stop offset="100%" style="stop-color:#7c3aed;stop-opacity:1" />
    </linearGradient>
    <filter id="glow">
      <feGaussianBlur stdDeviation="1.5" result="coloredBlur"/>
      <feMerge>
        <feMergeNode in="coloredBlur"/>
        <feMergeNode in="SourceGraphic"/>
      </feMerge>
    </filter>
  </defs>
  
  <!-- Fondo oscuro squircle (cuadrado redondeado) -->
  <rect x="5" y="5" width="90" height="90" rx="22" fill="#0f172a" stroke="#333333" stroke-width="2" />
  
  <!-- Estructura Hexagonal / Neuronal -->
  <g filter="url(#glow)" transform="translate(50, 50)">
    <!-- Hexágono exterior -->
    <path d="M0 -30 L26 -15 L26 15 L0 30 L-26 15 L-26 -15 Z" fill="none" stroke="url(#grad)" stroke-width="2.5" opacity="0.8" />
    
    <!-- Conexiones internas al núcleo -->
    <line x1="0" y1="0" x2="0" y2="-30" stroke="url(#grad)" stroke-width="1.5" />
    <line x1="0" y1="0" x2="26" y2="-15" stroke="url(#grad)" stroke-width="1.5" />
    <line x1="0" y1="0" x2="26" y2="15" stroke="url(#grad)" stroke-width="1.5" />
    <line x1="0" y1="0" x2="0" y2="30" stroke="url(#grad)" stroke-width="1.5" />
    <line x1="0" y1="0" x2="-26" y2="15" stroke="url(#grad)" stroke-width="1.5" />
    <line x1="0" y1="0" x2="-26" y2="-15" stroke="url(#grad)" stroke-width="1.5" />
    
    <!-- Núcleo de IA -->
    <circle cx="0" cy="0" r="7" fill="url(#grad)" />
    
    <!-- Nodos periféricos -->
    <circle cx="0" cy="-30" r="3" fill="#fff" />
    <circle cx="26" cy="-15" r="3" fill="#fff" />
    <circle cx="26" cy="15" r="3" fill="#fff" />
    <circle cx="0" cy="30" r="3" fill="#fff" />
    <circle cx="-26" cy="15" r="3" fill="#fff" />
    <circle cx="-26" cy="-15" r="3" fill="#fff" />
  </g>
</svg>
